HIERARCHY
ROOT Hips
{
    OFFSET 0.0 0.0 0.0
    CHANNELS 6 Xposition Yposition Zposition Zrotation Xrotation Yrotation
    JOINT Spine
    {
        OFFSET 0.0 5.0 0.0
        CHANNELS 3 Zrotation Xrotation Yrotation
        JOINT Chest
        {
            OFFSET 0.0 5.0 0.0
            CHANNELS 3 Zrotation Xrotation Yrotation
            JOINT Neck
            {
                OFFSET 0.0 8.0 0.0
                CHANNELS 3 Zrotation Xrotation Yrotation
                JOINT Head
                {
                    OFFSET 0.0 5.0 0.0
                    CHANNELS 3 Zrotation Xrotation Yrotation
                    End Site
                    {
                        OFFSET 0.0 3.0 0.0
                    }
                }
            }
            JOINT LeftShoulder
            {
                OFFSET -5.0 0.0 0.0
                CHANNELS 3 Zrotation Xrotation Yrotation
                JOINT LeftArm
                {
                    OFFSET 0.0 -10.0 0.0
                    CHANNELS 3 Zrotation Xrotation Yrotation
                    JOINT LeftForeArm
                    {
                        OFFSET 0.0 -10.0 0.0
                        CHANNELS 3 Zrotation Xrotation Yrotation
                        End Site
                        {
                            OFFSET 0.0 -3.0 0.0
                        }
                    }
                }
            }
        }
    }
}

MOTION
Frames: 25
Frame Time: 0.033333
960.000000 445.000000 98.460975 0.000000 0.000000 0.000000 0.000000 0.000000 0.000000 23.025492 -9.657446 0.000000 180.000000 -0.625349 0.000000 21.801409 -11.946472 -0.000000 158.198591 -2.974737 30.000000 15.945396 -2.413015 0.000000 18.000000 0.182525 0.000000
1691.525230 140.756605 115.195490 0.000000 0.000000 0.000000 0.000000 0.000000 0.000000 -163.376529 1.721399 4.973798 16.623471 5.606431 4.973798 -171.853121 -3.674048 3.759997 99.744051 6.446620 29.763441 -171.126653 -3.688078 -3.759997 0.673538 0.430519 0.313953
1636.048050 128.802021 122.303233 0.000000 0.000000 0.000000 0.000000 0.000000 0.000000 157.904128 6.433305 9.635073 -22.095872 6.611546 9.635073 -171.936471 -3.999333 7.460697 -143.675701 6.269658 29.057495 -173.500805 -4.710741 -7.460697 0.570999 0.406288 0.626666
1578.156967 80.474526 116.563481 0.000000 0.000000 0.000000 0.000000 0.000000 0.000000 -139.519796 -9.196945 13.690942 40.480204 12.684224 13.690942 -174.507724 -4.081103 11.043737 119.111399 -3.040383 27.893295 -173.607258 -3.461813 -11.043737 0.461920 0.450154 0.936907
960.418757 444.998421 106.832415 0.000000 0.000000 0.000000 0.000000 0.000000 0.000000 25.077893 -29.964298 16.886559 180.000000 12.479883 16.886559 23.861935 3.470325 14.452610 156.138065 11.820035 26.289200 17.903699 2.442380 -14.452610 18.000000 -0.064518 1.243449
960.523360 444.997533 131.944265 0.000000 0.000000 0.000000 0.000000 0.000000 0.000000 25.638906 3.199330 19.021130 180.000000 12.285690 19.021130 24.425035 -8.343721 17.633558 155.574965 11.887040 24.270510 18.452907 -8.056244 -17.633558 18.000000 0.711275 1.545085
960.627905 444.996447 128.861396 0.000000 0.000000 0.000000 0.000000 0.000000 0.000000 26.219073 15.860501 19.960535 180.000000 -11.621799 19.960535 25.006291 14.958811 20.536413 154.993709 -5.085872 21.869059 19.024920 4.823148 -20.536413 18.000000 0.139317 1.840623
1126.242828 420.359820 150.026798 0.000000 0.000000 0.000000 0.000000 0.000000 0.000000 31.410514 3.041876 19.645745 -148.589486 -9.676079 19.645745 32.280463 8.691356 23.115397 -131.603972 -0.525387 19.122720 45.585331 -2.346312 -23.115397 -13.449727 0.275992 2.128896
1257.895088 650.549197 128.516343 0.000000 0.000000 0.000000 0.000000 0.000000 0.000000 25.073180 23.005611 18.096541 -154.926820 -9.759694 18.096541 46.260945 -2.091900 25.329838 -154.651428 -5.783054 16.074804 27.339487 5.954767 -25.329838 -13.619892 -1.829063 2.408768
960.941083 444.992008 136.960869 0.000000 0.000000 0.000000 0.000000 0.000000 0.000000 28.072001 -17.684122 15.410265 180.000000 6.966157 15.410265 26.849221 -5.327318 27.144812 153.150779 2.899024 12.773379 20.864045 1.045824 -27.144812 18.000000 0.068631 2.679134
1163.815842 547.748709 126.119097 0.000000 0.000000 0.000000 0.000000 0.000000 0.000000 117.162728 -11.806391 11.755705 -62.837272 -9.508905 11.755705 102.363764 1.766599 28.531695 -47.376450 0.050982 9.270510 104.768601 0.129575 -28.531695 -6.003489 0.229324 2.938926
961.149372 444.988063 141.858978 0.000000 0.000000 0.000000 0.000000 0.000000 0.000000 29.395983 -34.043572 7.362491 180.000000 -3.542775 7.362491 28.146217 17.068450 29.468618 151.853783 6.302120 5.621439 22.170006 -0.564768 -29.468618 18.000000 0.122837 3.187120
1136.717377 590.104480 137.211581 0.000000 0.000000 0.000000 0.000000 0.000000 0.000000 115.752126 3.864369 2.506665 -64.247874 -2.409428 2.506665 73.638146 -0.254864 29.940802 -21.842452 -4.340284 1.883716 75.369282 -4.001853 -29.940802 -6.767207 1.176545 3.422736
1163.079758 634.077559 151.622689 0.000000 0.000000 0.000000 0.000000 0.000000 0.000000 132.174340 -6.994684 -2.506665 -47.825660 5.263011 -2.506665 94.255711 -0.081347 29.940802 -149.364979 -6.585485 -1.883716 30.021641 5.657576 -29.940802 -5.096180 0.164266 3.644843
961.460830 444.980668 153.511035 0.000000 0.000000 0.000000 0.000000 0.000000 0.000000 31.497152 -23.929349 -7.362491 180.000000 20.354467 -7.362491 30.152455 -4.095500 29.468618 149.847545 11.816563 -5.621439 24.175589 -4.462509 -29.468618 18.000000 -0.156853 3.852566
1097.449951 565.089898 147.269523 0.000000 0.000000 0.000000 0.000000 0.000000 0.000000 -119.219568 -0.534613 -11.755705 60.780432 -4.199808 -11.755705 -150.180642 -6.477242 28.531695 48.804955 1.211244 -9.270510 -149.874178 -6.616498 -28.531695 2.713854 0.512872 4.045085
1114.140244 528.302071 161.531971 0.000000 0.000000 0.000000 0.000000 0.000000 0.000000 -142.671523 -1.775961 -15.410265 37.328477 -2.886270 -15.410265 -177.395681 4.016088 27.144812 34.687329 -5.054330 -12.773379 161.894167 5.019274 -27.144812 -0.910956 -0.144248 4.221640
1116.433640 479.728639 156.398340 0.000000 0.000000 0.000000 0.000000 0.000000 0.000000 -102.267481 -0.654820 -18.096541 77.732519 15.312341 -18.096541 -163.695626 -4.254470 25.329838 38.575767 3.118648 -16.074804 -176.001122 -1.523791 -25.329838 0.706594 0.026259 4.381533
1135.931282 466.493965 151.499356 0.000000 0.000000 0.000000 0.000000 0.000000 0.000000 -112.868406 5.374709 -19.645745 67.131594 13.269985 -19.645745 -159.517862 -3.950009 23.115397 36.204678 -2.358903 -19.122720 -154.426613 -5.418123 -23.115397 2.428729 0.517631 4.524135
1141.618767 467.420679 134.123381 0.000000 0.000000 0.000000 0.000000 0.000000 0.000000 -123.086385 0.876340 -19.960535 56.913615 -2.397060 -19.960535 -154.885724 0.334537 20.536413 36.481623 1.720691 -21.869059 -153.965441 -6.323472 -20.536413 2.446728 0.561913 4.648882
1150.647926 469.370956 137.658698 0.000000 0.000000 0.000000 0.000000 0.000000 0.000000 -43.953779 50.483553 -19.021130 136.046221 -17.850814 -19.021130 -154.327268 -7.391392 17.633558 60.745168 -18.655278 -24.270510 -153.350642 -6.082057 -17.633558 2.386216 0.595474 4.755283
1151.529922 496.420240 151.113344 0.000000 0.000000 0.000000 0.000000 0.000000 0.000000 -116.362129 4.144816 -16.886559 63.637871 -0.874433 -16.886559 -149.081043 -2.148130 14.452610 35.941860 -0.052470 -26.289200 -156.847177 -0.538906 -14.452610 2.056513 -0.089963 4.842916
1148.402367 515.713574 128.653252 0.000000 0.000000 0.000000 0.000000 0.000000 0.000000 -118.252650 21.000301 -13.690942 61.747350 2.417076 -13.690942 -138.082896 -8.471643 11.043737 -156.312677 -7.859606 -27.893295 21.649626 9.468522 -11.043737 2.962417 -0.039207 4.911436
1175.363617 533.368646 146.174848 0.000000 0.000000 0.000000 0.000000 0.000000 0.000000 -95.476638 3.098508 -9.635073 84.523362 -1.121022 -9.635073 -113.907461 0.151100 7.460697 -155.995907 -6.511437 -29.057495 12.512064 7.803730 -7.460697 -16.748794 -0.780373 4.960574
1199.533310 485.991104 131.939504 0.000000 0.000000 0.000000 0.000000 0.000000 0.000000 -100.003195 13.767164 -4.973798 79.996805 -0.577315 -4.973798 -86.083188 -4.125791 3.759997 38.843754 -2.783867 -29.763441 -106.539452 4.282479 -3.759997 6.197806 -0.417616 4.990134
